PathFileType	4	(X/Y/Z)	c:/Users/goper/Files/vsCode/490R/osim_files/C08/C08_Slow_06.trc
DataRate	CameraRate	NumFrames	NumMarkers	Units                	OrigDataRate	OrigDataStartFrame	OrigNumFrames
250.00	250.00	9	36	mm	250.0	2298	2626
                Frame#	Time	LPSIS			LASIS			LTH1			LTH2			LTH3			LTH4			LLFE			LMFE			LSH1			LSH2			LSH3			LSH4			LLMAL			LMMAL			LCAL			LMTP5			LTOE			LMTP1			RPSIS			RASIS			RTH1			RTH2			RTH3			RTH4			RLFE			RMFE			RSH1			RSH2			RSH3			RSH4			RLMAL			RMMAL			RCAL			RMTP1			RTOE			RMTP5		
		X1	Y1	Z1	X2	Y2	Z2	X3	Y3	Z3	X4	Y4	Z4	X5	Y5	Z5	X6	Y6	Z6	X7	Y7	Z7	X8	Y8	Z8	X9	Y9	Z9	X10	Y10	Z10	X11	Y11	Z11	X12	Y12	Z12	X13	Y13	Z13	X14	Y14	Z14	X15	Y15	Z15	X16	Y16	Z16	X17	Y17	Z17	X18	Y18	Z18	X19	Y19	Z19	X20	Y20	Z20	X21	Y21	Z21	X22	Y22	Z22	X23	Y23	Z23	X24	Y24	Z24	X25	Y25	Z25	X26	Y26	Z26	X27	Y27	Z27	X28	Y28	Z28	X29	Y29	Z29	X30	Y30	Z30	X31	Y31	Z31	X32	Y32	Z32	X33	Y33	Z33	X34	Y34	Z34	X35	Y35	Z35	X36	Y36	Z36

2298	9.18800	-3675.01196	1041.38647	176.18683	-3896.47217	1008.56879	253.47552	-3852.29858	725.18048	328.38300	-3879.15820	653.88550	314.27747	-3899.20874	583.22882	304.94193	-3956.38379	681.64575	303.70096	-3917.09741	537.02527	294.28494	-3941.53027	531.49329	165.70245	0.00000	0.00000	0.00000	0.00000	0.00000	0.00000	-3969.64429	430.92761	310.28314	0.00000	0.00000	0.00000	-4285.76416	616.91150	317.58090	0.00000	0.00000	0.00000	0.00000	0.00000	0.00000	0.00000	0.00000	0.00000	-4300.82568	320.53345	197.99254	0.00000	0.00000	0.00000	-3674.18701	1041.93176	116.72018	-3875.73169	1009.10046	13.78902	-3774.92407	750.03400	-35.43481	-3764.56494	674.83484	-16.65237	-3746.89258	597.75586	-9.38753	-3835.76855	667.70081	12.23482	-3729.61450	523.41931	17.69501	0.00000	0.00000	0.00000	-3658.41113	456.82626	0.67854	-3654.15674	409.85754	-7.25225	-3718.41748	445.72195	7.30023	-3704.41357	398.86990	5.11157	0.00000	0.00000	0.00000	-3605.22192	119.68295	147.98253	-3498.14111	106.61234	130.02776	-3720.60352	44.85735	133.79633	0.00000	0.00000	0.00000	-3683.52710	45.80220	21.17118
2299	9.19200	-3678.55371	1041.00415	176.63684	-3900.28931	1008.36426	253.60461	-3855.82910	724.71246	328.37512	-3882.99756	653.61542	314.19788	-3903.08447	582.93646	304.64426	-3959.94092	681.13788	303.77017	-3920.93750	536.82007	293.99777	-3945.92212	531.56689	165.57484	0.00000	0.00000	0.00000	0.00000	0.00000	0.00000	-3973.21851	430.44571	310.01505	0.00000	0.00000	0.00000	0.00000	0.00000	0.00000	-4087.77686	131.60345	177.60268	0.00000	0.00000	0.00000	-4289.10254	616.59033	317.48328	0.00000	0.00000	0.00000	0.00000	0.00000	0.00000	-3678.02515	1041.50024	117.14557	-3879.66577	1008.87323	14.16289	-3778.55835	749.94714	-35.15532	-3768.05762	674.72809	-16.49379	-3750.25464	597.68628	-9.28196	-3839.26538	667.42426	12.40280	-3732.74292	523.33667	17.80614	0.00000	0.00000	0.00000	-3661.16724	457.09610	0.72456	-3655.94727	410.80667	-6.68480	-3719.73730	442.35199	9.41399	-3706.86255	398.90240	5.15714	0.00000	0.00000	0.00000	-3605.89233	120.29628	147.86639	-3498.35571	107.69688	129.81584	-3720.72363	44.85429	133.75392	0.00000	0.00000	0.00000	-3682.59131	45.94254	20.51419
2300	9.19600	-3682.20605	1040.54358	177.06448	-3904.09619	1008.09692	253.82024	-3863.20337	726.23358	331.17340	-3886.94287	653.43909	314.14536	-3907.07471	582.73010	304.28137	-3963.67944	680.88110	303.86520	-3925.01465	536.70496	293.75195	-3950.73486	531.78284	165.49451	0.00000	0.00000	0.00000	0.00000	0.00000	0.00000	-3976.93433	429.87463	309.74173	0.00000	0.00000	0.00000	0.00000	0.00000	0.00000	-4090.55249	131.16640	176.75417	0.00000	0.00000	0.00000	0.00000	0.00000	0.00000	-4068.26978	106.60323	250.39749	0.00000	0.00000	0.00000	-3681.62061	1041.07800	117.62127	-3883.58301	1008.65936	14.57339	-3782.19678	749.79883	-34.86085	-3771.57788	674.57892	-16.27891	-3753.70508	597.56024	-9.17946	-3842.76074	667.14832	12.59308	-3735.95898	523.23724	17.90975	0.00000	0.00000	0.00000	-3664.00024	457.37201	0.74853	-3659.16968	410.48657	-7.21736	-3722.51099	442.31180	9.47978	-3709.32861	398.89465	5.18853	0.00000	0.00000	0.00000	-3606.47876	120.85570	147.67799	-3506.00635	106.01528	131.59186	-3720.77051	44.79165	133.75098	0.00000	0.00000	0.00000	-3682.68018	45.89094	20.43127
2301	9.20000	-3685.97803	1040.06311	177.56506	-3907.91211	1007.80090	254.12123	-3863.14697	723.95483	328.40948	-3891.05518	653.30933	314.10138	-3911.29468	582.63843	304.01981	-3967.53589	680.85352	303.92136	-3929.20312	536.56665	293.44977	-3955.85327	532.10272	165.45851	0.00000	0.00000	0.00000	0.00000	0.00000	0.00000	-3980.74072	429.20093	309.46631	0.00000	0.00000	0.00000	0.00000	0.00000	0.00000	-4093.13354	130.50197	175.83177	0.00000	0.00000	0.00000	-4296.40527	616.03278	317.24094	0.00000	0.00000	0.00000	0.00000	0.00000	0.00000	-3685.49365	1040.75061	117.98351	-3887.45728	1008.38538	15.00638	-3785.87964	749.65125	-34.53861	-3775.22803	674.49536	-16.04636	-3757.20996	597.40399	-9.09385	-3846.33667	666.85419	12.82653	-3739.23047	523.11383	18.02241	0.00000	0.00000	0.00000	-3666.97119	457.64490	0.74983	-3661.01758	411.35413	-6.71264	-3725.33813	442.20078	9.55296	-3711.86084	398.88675	5.20543	0.00000	0.00000	0.00000	-3607.08936	121.47296	147.41524	-3506.32739	107.07968	131.28181	-3720.74487	44.70249	133.71144	0.00000	0.00000	0.00000	-3682.75122	45.85020	20.34147
2302	9.20400	-3689.85645	1039.56299	178.04068	-3911.76343	1007.40649	254.51170	-3866.99292	723.70892	328.40320	-3895.30127	653.30011	314.08368	-3915.69043	582.64764	303.83743	-3971.58691	681.01794	303.95929	-3933.64844	536.57782	293.24316	-3961.13501	532.48779	165.46016	0.00000	0.00000	0.00000	0.00000	0.00000	0.00000	-3984.61328	428.52380	309.19751	0.00000	0.00000	0.00000	0.00000	0.00000	0.00000	-4094.99219	129.28004	175.02251	0.00000	0.00000	0.00000	-4300.30713	615.86566	317.08179	0.00000	0.00000	0.00000	0.00000	0.00000	0.00000	0.00000	0.00000	0.00000	-3891.40649	1008.12445	15.48653	-3789.65771	749.47339	-34.21433	-3778.87378	674.32629	-15.78126	-3760.77173	597.22034	-8.96873	-3850.01953	666.59827	13.09995	-3742.61255	522.98547	18.12661	0.00000	0.00000	0.00000	-3669.95068	457.89035	0.79483	-3663.72534	411.55280	-6.73917	-3728.19141	442.08344	9.60414	-3714.51465	398.87274	5.25730	0.00000	0.00000	0.00000	-3607.67529	122.11666	147.20630	-3506.82471	108.22401	131.01430	-3720.82397	44.68133	133.71597	0.00000	0.00000	0.00000	-3682.79980	45.78965	20.23809
2303	9.20800	-3693.70557	1039.09619	178.44386	-3915.65186	1006.98877	254.99925	-3871.18164	723.62842	328.49451	-3899.57129	653.21130	314.04672	-3920.14136	582.62750	303.62863	-3975.73828	681.24750	303.94745	-3938.15601	536.58258	293.03271	-3966.39038	532.85742	165.52638	0.00000	0.00000	0.00000	0.00000	0.00000	0.00000	-3988.52222	427.79993	308.94302	0.00000	0.00000	0.00000	-3693.30811	1039.92175	118.86181	0.00000	0.00000	0.00000	0.00000	0.00000	0.00000	0.00000	0.00000	0.00000	-3545.72803	88.38072	102.69074	0.00000	0.00000	0.00000	0.00000	0.00000	0.00000	-3895.40454	1007.89667	15.98957	-3793.47485	749.30688	-33.85299	-3782.57178	674.13165	-15.51971	-3764.45288	597.04431	-8.90441	-3853.71533	666.28644	13.38076	-3746.00220	522.83081	18.28122	0.00000	0.00000	0.00000	-3673.01953	458.09470	0.86029	-3667.25708	411.33005	-7.24670	-3731.18408	441.95285	9.69728	-3717.17871	398.83157	5.29759	0.00000	0.00000	0.00000	-3608.28931	122.77660	146.95572	-3507.46436	109.32021	130.65625	-3720.83667	44.62625	133.70599	0.00000	0.00000	0.00000	-3682.90454	45.77652	20.11562
2304	9.21200	0.00000	0.00000	0.00000	-3919.58374	1006.51544	255.58521	-3875.32690	723.47980	328.47491	-3903.95386	653.16486	313.96802	-3924.69360	582.62311	303.41998	-3980.01416	681.64697	303.87003	-3942.67163	536.54523	292.85950	-3971.75708	533.70312	165.39958	0.00000	0.00000	0.00000	0.00000	0.00000	0.00000	-3992.39941	427.05127	308.66763	0.00000	0.00000	0.00000	-3697.07056	1039.54565	119.24732	0.00000	0.00000	0.00000	0.00000	0.00000	0.00000	0.00000	0.00000	0.00000	0.00000	0.00000	0.00000	-3546.58081	89.40042	102.01089	0.00000	0.00000	0.00000	-3899.32690	1007.60846	16.49424	-3797.31177	749.08350	-33.51459	-3786.28784	673.87561	-15.21380	-3768.23535	596.86316	-8.82161	-3857.46655	665.99481	13.70151	-3749.45630	522.59113	18.44922	0.00000	0.00000	0.00000	-3676.18555	458.22894	0.92102	-3669.20483	412.01312	-6.67038	-3734.21387	441.78540	9.75973	-3719.97827	398.79620	5.32978	0.00000	0.00000	0.00000	-3608.92969	123.47782	146.62004	-3508.09155	110.54964	130.37082	-3720.92627	44.63606	133.67909	0.00000	0.00000	0.00000	-3683.00024	45.75351	20.01322
2305	9.21600	0.00000	0.00000	0.00000	-3923.57764	1006.05255	256.26331	-3879.63721	723.35211	328.51810	-3908.28223	652.99420	313.79044	-3929.42090	582.69073	303.27319	-3984.41064	682.07483	303.77145	-3947.18823	536.45605	292.66568	-3976.57251	533.92816	165.58427	0.00000	0.00000	0.00000	0.00000	0.00000	0.00000	-3996.22168	426.34937	308.34055	0.00000	0.00000	0.00000	-3701.15820	1039.20703	119.59749	0.00000	0.00000	0.00000	0.00000	0.00000	0.00000	0.00000	0.00000	0.00000	-4312.33936	615.65784	316.69550	0.00000	0.00000	0.00000	0.00000	0.00000	0.00000	-3903.23145	1007.30463	16.99099	-3801.21069	748.88715	-33.14872	-3790.10693	673.65948	-14.88639	-3772.10352	596.62695	-8.72800	-3861.30640	665.73114	14.03719	-3753.01050	522.38776	18.60480	0.00000	0.00000	0.00000	-3679.49268	458.31406	0.96375	-3673.11865	411.95694	-7.34271	-3737.32495	441.63730	9.82863	-3722.76904	398.72473	5.38228	0.00000	0.00000	0.00000	-3609.63037	124.16534	146.31082	-3508.73047	111.84680	130.06145	-3721.02954	44.65167	133.67114	0.00000	0.00000	0.00000	-3683.12134	45.73061	19.90785
2306	9.22000	-3705.74487	1037.92200	179.61824	-3927.64355	1005.57178	257.01462	-3884.02344	723.20935	328.54413	-3912.67578	652.85669	313.59244	-3934.03174	582.64209	303.00064	-3988.80591	682.48914	303.64944	-3951.74976	536.39648	292.55524	-3981.21582	534.14520	165.76926	0.00000	0.00000	0.00000	0.00000	0.00000	0.00000	-3999.96338	425.66080	308.02097	0.00000	0.00000	0.00000	0.00000	0.00000	0.00000	0.00000	0.00000	0.00000	-3502.38232	115.77386	127.80445	0.00000	0.00000	0.00000	0.00000	0.00000	0.00000	0.00000	0.00000	0.00000	0.00000	0.00000	0.00000	-3907.16821	1007.00635	17.49139	-3805.09033	748.66199	-32.80323	-3793.90796	673.34949	-14.58033	-3776.12109	596.40594	-8.64861	-3865.15723	665.47058	14.36753	-3756.65723	522.10748	18.78743	0.00000	0.00000	0.00000	-3682.88062	458.38986	0.99866	-3676.05054	412.19775	-7.30414	-3740.47607	441.42813	9.93466	-3725.62134	398.63437	5.44860	0.00000	0.00000	0.00000	-3610.36694	124.86648	145.97195	0.00000	0.00000	0.00000	-3721.19336	44.71479	133.66142	0.00000	0.00000	0.00000	-3683.24121	45.71318	19.80169
